/* XPM */
static char *Free_Converter_com_bitcoin32_80834054[] = {
/* columns rows colors chars-per-pixel */
"32 32 189 2 ",
"   c #000026",
".  c #081924",
"X  c #0A1924",
"o  c #4F440F",
"O  c #524000",
"+  c #755C06",
"@  c #715B0F",
"#  c #474220",
"$  c #826816",
"%  c #8C6E10",
"&  c #8F7116",
"*  c #8D731D",
"=  c #91741A",
"-  c #92751A",
";  c #97791E",
":  c #937A2A",
">  c #AD840D",
",  c #A38019",
"<  c #A58119",
"1  c #B78D14",
"2  c #B28B19",
"3  c #BD9012",
"4  c #BD9117",
"5  c #BE9217",
"6  c #9F8128",
"7  c #A58626",
"8  c #A68627",
"9  c #A98726",
"0  c #AB8821",
"q  c #A68729",
"w  c #AB8C2B",
"e  c #B28E26",
"r  c #B18E2A",
"t  c #B59127",
"y  c #BA952B",
"u  c #B9952E",
"i  c #B69430",
"p  c #BD9830",
"a  c #B1943C",
"s  c #C49617",
"d  c #CA9A17",
"f  c #CB9A17",
"g  c #CC9B15",
"h  c #D4A116",
"j  c #D6A216",
"k  c #EBAC02",
"l  c #EDAC08",
"z  c #F1B104",
"x  c #F7B406",
"c  c #F3B40C",
"v  c #FFBD0B",
"b  c #FFBD0F",
"n  c #E3AB15",
"m  c #E9AF14",
"M  c #EBB014",
"N  c #EDB214",
"B  c #F3B510",
"V  c #F0B214",
"C  c #F0B414",
"Z  c #F2B414",
"A  c #F2B514",
"S  c #F3B514",
"D  c #F3B614",
"F  c #F4B614",
"G  c #F4B714",
"H  c #F5B714",
"J  c #F7B813",
"K  c #F3B817",
"L  c #F6B814",
"P  c #F9B913",
"I  c #F9BB13",
"U  c #FDBD13",
"Y  c #FCBF12",
"T  c #FFBE13",
"R  c #FCBD1B",
"E  c #C39E37",
"W  c #C39F37",
"Q  c #D0A838",
"!  c #F2BC2D",
"~  c #F5BD2C",
"^  c #F4BD2D",
"/  c #F4BE2E",
"(  c #F5BE2E",
")  c #E8B736",
"_  c #E1B23B",
"`  c #E9B93A",
"'  c #ECBB39",
"]  c #F4BF35",
"[  c #F1BF3A",
"{  c #FFC103",
"}  c #FFC604",
"|  c #FFC00F",
" . c #FFC50E",
".. c #FFC013",
"X. c #FFC113",
"o. c #FFC213",
"O. c #FFC313",
"+. c #FEC412",
"@. c #FFC812",
"#. c #FFCA12",
"$. c #FFCF11",
"%. c #FFC925",
"&. c #FFCA2F",
"*. c #F4C037",
"=. c #F8C337",
"-. c #FEC736",
";. c #F3C13A",
":. c #F2C03B",
">. c #F5C23B",
",. c #F3C23C",
"<. c #FFD33E",
"1. c #BA9D45",
"2. c #D0AC47",
"3. c #D7B04B",
"4. c #DDB64D",
"5. c #DDB854",
"6. c #D0B25C",
"7. c #EDC24B",
"8. c #F5C442",
"9. c #F6C543",
"0. c #F4C446",
"q. c #F9C540",
"w. c #F1C34A",
"e. c #F4C64A",
"r. c #F5C64A",
"t. c #F7C74A",
"y. c #F1C54D",
"u. c #F0C44F",
"i. c #FECC4A",
"p. c #F9C94C",
"a. c #F8C94F",
"s. c #FECD4D",
"d. c #FFCF4F",
"f. c #FFD34E",
"g. c #FFD54E",
"h. c #EDC659",
"j. c #F2C653",
"k. c #F0C354",
"l. c #F6CA54",
"z. c #F8CB52",
"x. c #F9CB53",
"c. c #FDCD50",
"v. c #F8CA54",
"b. c #FACC55",
"n. c #FBCE56",
"m. c #F0C75B",
"M. c #FFD250",
"N. c #FFD350",
"B. c #FFD651",
"V. c #FFD552",
"C. c #FFD354",
"Z. c #FCD057",
"A. c #FFD457",
"S. c #FFD258",
"D. c #FFD65B",
"F. c #FFD75B",
"G. c #FCD05E",
"H. c #FBD55F",
"J. c #FFD65D",
"K. c #FFD75D",
"L. c #FFD45E",
"P. c #FFD85B",
"I. c #FFDB5C",
"U. c #FFDA5D",
"Y. c #FACF60",
"T. c #F3CE6A",
"R. c #FBD160",
"E. c #FFD767",
"W. c #FFD963",
"Q. c #FFDA62",
"!. c #FFD867",
"~. c #F6D06B",
"^. c #F7D16C",
"/. c #FED769",
"(. c #F9D26D",
"). c #FBD56E",
"_. c #FDD878",
"`. c #FFE166",
"'. c #FFE772",
"]. c #FFE176",
"[. c #FFE27B",
"{. c #FFE678",
"}. c #FFF07E",
"|. c #FCDA82",
" X c #FBDB88",
".X c #FFE187",
"XX c #FFED80",
"oX c #FFEE84",
"OX c None",
/* pixels */
"OXOXOXOXOXOXOXOXOXOXOXOXOXOXOXOXOXOXOXOXOXOXOXOXOXOXOXOXOXOXOXOX",
"OXOXOXOXOXOXOXOXOXOXOXOXOXOXOXOXOXOXOXOXOXOXOXOXOXOXOXOXOXOXOXOX",
"OXOXOXOXOXOXOXOXOXOXOXOXOXOXOXOXOXOXOXOXOXOXOXOXOXOXOXOXOXOXOXOX",
"OXOXOXOXOXOXOXOXOXOXOXOXOXOXOXOXOXOXOXOXOXOXOXOXOXOXOXOXOXOXOXOX",
"OXOXOXOXOXOXOXOXOXOXOXOXOXOXOXOXOXOXOXOXOXOXOXOXOXOXOXOXOXOXOXOX",
"OXOXOXOXOXOXOXOXOXOXOXOXOXOXOXOXOXOXOXOXOXOXOXOXOXOXOXOXOXOXOXOX",
"OXOXOXOXOXOXOXOXOXOXOXOXOXOXOXOXOXOXOXOXOXOXOXOXOXOXOXOXOXOXOXOX",
"OXOXOXOXOXOXOXOXOXOXOXOXOXOXOXOX,.;.OXOXOXOXOXOXOXOXOXOXOXOXOXOX",
"OXOXOXOXOX( ( ( ~ *.OXOXOX=.( >.8.8.*.! -.OXOXOX' ,.[ ) OXOXOXOX",
"OXOXOXOXu.v.S.F.F.S.c._ OXg.L.B.s.0.t.b.i.OXp g.B.M.B.c.t.OXOXOX",
"OXOXOXw.l.Z.W q 7 u z.H.r OXi q e y.b.F.OX9 U.I.Q $ ; 7.t.OXOXOX",
"OXOXOXG.R.W.* O OXOXa.'.E OXOXOXOXR.E.OXOXk.`.OXOXw OXOXOXOXOXOX",
"OXOXOXOXT.).5.2.j.L./.4.& OXOXOX!.^.W.OX6 {.h.+ 1.}.L.OXOXOXOXOX",
"OXOXOXOXm.~.].XX[._..X6.OXOXOX(. X|.OXOXa oX3.@ ` &.L B OXOXOXOX",
"OXOXOXc A R t : OXOXq.B.y OXOXz.a.<.OXOX0 %.K OX> } b OXOXOXOXOX",
"OXOXOXA B v % o OXOXk { g OX| x z OXOXOXOXl  .OXOX= OXOXOXOXOXOX",
"OXOXOXOXA I f 2 1 4 N U 4 j U G m 4 s n OX< I ..j = , M I OXOXOX",
"OXOXOXOXA A U +.X...B C OXG A A L X.X.X...OXf U ......L C OXOXOX",
"OXOXOXOXOXOXOXOXOXOXOXOXOXG OXA A A B OXL OXOXOXA A G OXOXOXOXOX",
"OXOXOXOXOXOXOXOXOXOXOXOXOXOXOXOXOXOXOXOXOXOXOXOXOXOXOXOXOXOXOXOX",
"OXOXOXOXOXOXOXOXOXOXOXOXOXOXOXOXOXOXOXOXOXOXOXOXOXOXOXOXOXOXOXOX",
"OXOXOXOXOXOXOXOXOXOXOXOXOXOXOXOXOXOXOXOXOXOXOXOXOXOXOXOXOXOXOXOX",
"OXOXOXOXOXOXOXOXOXOXOXOXOXOXOXOXOXOXOXOXOXOXOXOXOXOXOXOXOXOXOXOX",
"OXOXOXOXX X OXX   OX$.OXOXOXA A OXG #.OXOXOXOXOXX OXX OXOXOXOXOX",
"OXOXOXOXX X OXOXOXOX+.OXOXOXA A A G #.# OXOXOXOXX X OXX OXOXOXOX",
"OXOXOXOXOXOXOXOXOXOXOXOXOXOXOXOXOXOXOXOXOXOXOXOXOXOXOXOXOXOXOXOX",
"OXOXOXOXOXOXOXOXOXOXOXOXOXOXOXOXOXOXOXOXOXOXOXOXOXOXOXOXOXOXOXOX",
"OXOXOXOXOXOXOXOXOXOXOXOXOXOXOXOXOXOXOXOXOXOXOXOXOXOXOXOXOXOXOXOX",
"OXOXOXOXOXOXOXOXOXOXOXOXOXOXOXOXOXOXOXOXOXOXOXOXOXOXOXOXOXOXOXOX",
"OXOXOXOXOXOXOXOXOXOXOXOXOXOXOXOXOXOXOXOXOXOXOXOXOXOXOXOXOXOXOXOX",
"OXOXOXOXOXOXOXOXOXOXOXOXOXOXOXOXOXOXOXOXOXOXOXOXOXOXOXOXOXOXOXOX",
"OXOXOXOXOXOXOXOXOXOXOXOXOXOXOXOXOXOXOXOXOXOXOXOXOXOXOXOXOXOXOXOX"
};
