/* XPM */
static char *Free_Converter_com_bitcoin64_87114131[] = {
/* columns rows colors chars-per-pixel */
"48 48 129 2 ",
"   c #000326",
".  c #051624",
"X  c #0A1924",
"o  c #292E22",
"O  c #574D1F",
"+  c #624F07",
"@  c #6A5202",
"#  c #6E580B",
"$  c #775B03",
"%  c #735D0E",
"&  c #665515",
"*  c #64551C",
"=  c #6C5B1D",
"-  c #745E10",
";  c #705D18",
":  c #7D6412",
">  c #77631C",
",  c #7F681C",
"<  c #806715",
"1  c #856911",
"2  c #896C11",
"3  c #856C1A",
"4  c #8A6F1A",
"5  c #8B701B",
"6  c #91741A",
"7  c #95781F",
"8  c #9B7B1B",
"9  c #A17E19",
"0  c #8E7522",
"q  c #9B7D23",
"w  c #AA8314",
"e  c #AB851A",
"r  c #AF891D",
"t  c #B78D18",
"y  c #B98F18",
"u  c #9D812B",
"i  c #A58424",
"p  c #AC8A26",
"a  c #A58628",
"s  c #AA8A2A",
"d  c #AE8E30",
"f  c #BB9835",
"g  c #BF9D39",
"h  c #D19D0D",
"j  c #C09317",
"k  c #CC9C16",
"l  c #CB9B18",
"z  c #D4A116",
"x  c #DAA516",
"c  c #F1AF02",
"v  c #F3B206",
"b  c #F8B503",
"n  c #FEBA05",
"m  c #F2B20A",
"M  c #F8B609",
"N  c #FFBF0F",
"B  c #E4AB15",
"V  c #EEB214",
"C  c #F2B514",
"Z  c #F6B914",
"A  c #FBBC13",
"S  c #C79C28",
"D  c #C39E3A",
"F  c #D7AE3F",
"G  c #D9AE38",
"H  c #F2BA26",
"J  c #F3BE2E",
"K  c #E7B735",
"L  c #ECBA34",
"P  c #E7B83C",
"I  c #F4BE32",
"U  c #F1BF3B",
"Y  c #FFC10E",
"T  c #FFC213",
"R  c #FFCC12",
"E  c #F6C134",
"W  c #FBC435",
"Q  c #F4C13B",
"!  c #FEC939",
"~  c #BD9E42",
"^  c #BFA14B",
"/  c #CCA740",
"(  c #D3AE45",
")  c #DBB345",
"_  c #DEB84F",
"`  c #E5B841",
"'  c #E8BB42",
"]  c #E3BB4C",
"[  c #E8BD49",
"{  c #E0BB53",
"}  c #E0BB58",
"|  c #F5C443",
" . c #F8C746",
".. c #FBC945",
"X. c #F5C64B",
"o. c #F8C748",
"O. c #F7C94D",
"+. c #FBCB4C",
"@. c #FFD946",
"#. c #FFD34C",
"$. c #ECC355",
"%. c #EECA5D",
"&. c #F5C750",
"*. c #F6C954",
"=. c #FBCC51",
"-. c #F5CB5C",
";. c #F9CD5B",
":. c #FED253",
">. c #FFD854",
",. c #FED35A",
"<. c #FFDE5A",
"1. c #EEC864",
"2. c #F7CE64",
"3. c #FACF60",
"4. c #FAD263",
"5. c #FFDB65",
"6. c #F6D06D",
"7. c #FBD46C",
"8. c #FFDC6B",
"9. c #FAD472",
"0. c #FFDC73",
"q. c #F7D378",
"w. c #F9D67D",
"e. c #FFDD7C",
"r. c #FFE06E",
"t. c #FFE47C",
"y. c #FADA85",
"u. c #FEE385",
"i. c None",
/* pixels */
"i.i.i.i.i.i.i.i.i.i.i.i.i.i.i.i.i.i.i.i.i.i.i.i.i.i.i.i.i.i.i.i.i.i.i.i.i.i.i.i.i.i.i.i.i.i.i.i.",
"i.i.i.i.i.i.i.i.i.i.i.i.i.i.i.i.i.i.i.i.i.i.i.i.i.i.i.i.i.i.i.i.i.i.i.i.i.i.i.i.i.i.i.i.i.i.i.i.",
"i.i.i.i.i.i.i.i.i.i.i.i.i.i.i.i.i.i.i.i.i.i.i.i.i.i.i.i.i.i.i.i.i.i.i.i.i.i.i.i.i.i.i.i.i.i.i.i.",
"i.i.i.i.i.i.i.i.i.i.i.i.i.i.i.i.i.i.i.i.i.i.i.i.i.i.i.i.i.i.i.i.i.i.i.i.i.i.i.i.i.i.i.i.i.i.i.i.",
"i.i.i.i.i.i.i.i.i.i.i.i.i.i.i.i.i.i.i.i.i.i.i.i.i.i.i.i.i.i.i.i.i.i.i.i.i.i.i.i.i.i.i.i.i.i.i.i.",
"i.i.i.i.i.i.i.i.i.i.i.i.i.i.i.i.i.i.i.i.i.i.i.i.i.i.i.i.i.i.i.i.i.i.i.i.i.i.i.i.i.i.i.i.i.i.i.i.",
"i.i.i.i.i.i.i.i.i.i.i.i.i.i.i.i.i.i.i.i.i.i.i.i.i.i.i.i.i.i.i.i.i.i.i.i.i.i.i.i.i.i.i.i.i.i.i.i.",
"i.i.i.i.i.i.i.i.i.i.i.i.i.i.i.i.i.i.i.i.i.i.i.i.i.i.i.i.i.i.i.i.i.i.i.i.i.i.i.i.i.i.i.i.i.i.i.i.",
"i.i.i.i.i.i.i.i.i.i.i.i.i.i.i.i.i.i.i.i.i.i.i.i.i.i.i.i.i.i.i.i.i.i.i.i.i.i.i.i.i.i.i.i.i.i.i.i.",
"i.i.i.i.i.i.i.i.i.i.i.i.i.i.i.i.i.i.i.i.i.i.i.i.i.i.i.i.i.i.i.i.i.i.i.i.i.i.i.i.i.i.i.i.i.i.i.i.",
"i.i.i.i.i.i.i.i.i.i.i.i.i.i.i.i.i.i.i.i.i.i.i.i.i.i.i.i.i.i.i.i.i.i.i.i.i.i.i.i.i.i.i.i.i.i.i.i.",
"i.i.i.i.i.i.i.i.i.i.i.i.i.i.i.i.i.i.i.i.i.i.i.J Q Q Q Q i.i.i.i.i.i.i.i.i.i.i.i.i.i.i.i.i.i.i.i.",
"i.i.i.i.i.i.i.E I I I I J J Q i.i.i.i.W U I I Q | | | Q J I I E i.i.i.i.K U U U Q L i.i.i.i.i.i.",
"i.i.i.i.i.i.` =.&.&.=.O.&.=.o.o.o.Q i.i.:.&.O.+.| o.X.| &.o.&.#.i.i.i.#...o.+.+.o.o. .P i.i.i.i.",
"i.i.i.i.i.i.' =.&.O.:.:.:.:.:.=.&.>.u i.@.:.=.:.:.O.X.O.o.&.:.i.i.f :.O.=.:.o.X.=.O.O.=.i.i.i.i.",
"i.i.i.i.i.&.*.*.,.) q a a i s ] =.,.] i.i.p p p 7 p &.*.&.,.| i.s <.=.:.+.a 3 4 i X.:.i.i.i.i.i.",
"i.i.i.i.i.;.;.-.5./ + - i.i.i.i.5.,.*.8 i.i.i.i.i.G 4.*.;.,.i.: &.,.,.:.i.i.i.- i.i.i.i.i.i.i.i.",
"i.i.i.i.i.;.2.;.8.( % : i.i.i.+.2.8.{ 2 i.i.i.i.i.8.-.-.7.i.i.d 8.3.,.i.i.i.<.$.i.i.i.i.i.i.i.i.",
"i.i.i.i.i.i.$.4.4.%.{ { -.;.2.2.4.%.i i.i.i.i.i.-.7.2.6.>.i.# ( 8.8.F @ 0 6.t.0.;.i.i.i.i.i.i.i.",
"i.i.i.i.i.i.i.y.q.e.t.t.0.7.7.7.0.D $ i.i.i.i.[ 9.2.6.7.i.i.: } t.u.~ @ g 5.Q H C C i.i.i.i.i.i.",
"i.i.i.i.i.i.I | o.*.1.1.9.9.6.9.w.u./ : i.i.i.y.y.w.y.#.i.i.1 _ 5.#.S * r N v m C C i.i.i.i.i.i.",
"i.i.i.i.i.C v c n h , 3 i.i.i.E I ....8 i.i.! &.| Q ! i.i.i.3 l Y b m i.* B R T T i.i.i.i.i.i.i.",
"i.i.i.i.i.C C C T k ; : i.i.i.i.b c n e i.i.M c c b i.i.i.i.i.w N C T i.i.i.i.y i.i.i.i.i.i.i.i.",
"i.i.i.i.i.C C C T l = > , i.i.j T C T 9 i.T C C A x 4 , 6 i.i.5 B T V T i.i.* O i.i.A i.i.i.i.i.",
"i.i.i.i.i.i.C C Z B l l l k x C C A B i.V Z C C Z B x B B V T i.5 A A Z A x y t k Z Z C i.i.i.i.",
"i.i.i.i.i.i.C C V A T T T T A Z C A i.i.T C C C C Z A A A A A i.i.i.A C C A T T A C C C i.i.i.i.",
"i.i.i.i.i.i.C C C C C C C C C C C i.i.A C C C C C C C C C C C A i.i.i.Z C C C C Z C C i.i.i.i.i.",
"i.i.i.i.i.i.i.i.i.i.i.i.i.i.i.i.i.i.i.i.i.i.i.C C C C C i.i.i.i.i.i.i.i.i.C C C C i.i.i.i.i.i.i.",
"i.i.i.i.i.i.i.i.i.i.i.i.i.i.i.i.i.i.i.i.i.i.i.i.C C C i.i.i.i.i.i.i.i.i.i.i.i.i.i.i.i.i.i.i.i.i.",
"i.i.i.i.i.i.i.i.i.i.i.i.i.i.i.i.i.i.i.i.i.i.i.i.i.i.i.i.i.i.i.i.i.i.i.i.i.i.i.i.i.i.i.i.i.i.i.i.",
"i.i.i.i.i.i.i.i.i.i.i.i.i.i.i.i.i.i.i.i.i.i.i.i.i.i.i.i.i.i.i.i.i.i.i.i.i.i.i.i.i.i.i.i.i.i.i.i.",
"i.i.i.i.i.i.i.i.i.i.i.i.i.i.i.i.i.i.i.i.i.i.i.i.i.i.i.i.i.i.i.i.i.i.i.i.i.i.i.i.i.i.i.i.i.i.i.i.",
"i.i.i.i.i.i.i.i.i.i.i.i.i.i.i.i.i.i.i.i.i.i.i.i.i.i.i.i.i.i.i.i.i.i.i.i.i.i.i.i.i.i.i.i.i.i.i.i.",
"i.i.i.i.i.i.i.i.i.i.i.i.i.i.i.i.i.i.i.i.i.i.i.i.i.i.i.i.i.i.i.. i.i.i.i.i.i.i.i.i.i.i.i.i.i.i.i.",
"i.i.i.i.i.i.X X X i.X i.X   i.R C i.C C C i.C i.i.C C Z R i.  X i.i.X X i.i.i.X X i.X i.i.i.i.i.",
"i.i.i.i.i.i.X i.X X X i.. i.i.R i.i.C i.i.C C C C i.C Z i.o   i.i.X i.i.X X i.i.X X X i.i.i.i.i.",
"i.i.i.i.i.i.X i.X X i.i.  i.i.A i.i.C i.C C i.i.C i.i.Z i.i.  i.i.X i.i.X X i.i.i.X X i.i.i.i.i.",
"i.i.i.i.i.i.i.i.i.i.i.i.i.i.i.i.i.i.i.i.i.i.i.i.i.i.i.i.i.i.i.i.i.i.i.i.i.i.i.i.i.i.i.i.i.i.i.i.",
"i.i.i.i.i.i.i.i.i.i.i.i.i.i.i.i.i.i.i.i.i.i.i.i.i.i.i.i.i.i.i.i.i.i.i.i.i.i.i.i.i.i.i.i.i.i.i.i.",
"i.i.i.i.i.i.i.i.i.i.i.i.i.i.i.i.i.i.i.i.i.i.i.i.i.i.i.i.i.i.i.i.i.i.i.i.i.i.i.i.i.i.i.i.i.i.i.i.",
"i.i.i.i.i.i.i.i.i.i.i.i.i.i.i.i.i.i.i.i.i.i.i.i.i.i.i.i.i.i.i.i.i.i.i.i.i.i.i.i.i.i.i.i.i.i.i.i.",
"i.i.i.i.i.i.i.i.i.i.i.i.i.i.i.i.i.i.i.i.i.i.i.i.i.i.i.i.i.i.i.i.i.i.i.i.i.i.i.i.i.i.i.i.i.i.i.i.",
"i.i.i.i.i.i.i.i.i.i.i.i.i.i.i.i.i.i.i.i.i.i.i.i.i.i.i.i.i.i.i.i.i.i.i.i.i.i.i.i.i.i.i.i.i.i.i.i.",
"i.i.i.i.i.i.i.i.i.i.i.i.i.i.i.i.i.i.i.i.i.i.i.i.i.i.i.i.i.i.i.i.i.i.i.i.i.i.i.i.i.i.i.i.i.i.i.i.",
"i.i.i.i.i.i.i.i.i.i.i.i.i.i.i.i.i.i.i.i.i.i.i.i.i.i.i.i.i.i.i.i.i.i.i.i.i.i.i.i.i.i.i.i.i.i.i.i.",
"i.i.i.i.i.i.i.i.i.i.i.i.i.i.i.i.i.i.i.i.i.i.i.i.i.i.i.i.i.i.i.i.i.i.i.i.i.i.i.i.i.i.i.i.i.i.i.i.",
"i.i.i.i.i.i.i.i.i.i.i.i.i.i.i.i.i.i.i.i.i.i.i.i.i.i.i.i.i.i.i.i.i.i.i.i.i.i.i.i.i.i.i.i.i.i.i.i.",
"i.i.i.i.i.i.i.i.i.i.i.i.i.i.i.i.i.i.i.i.i.i.i.i.i.i.i.i.i.i.i.i.i.i.i.i.i.i.i.i.i.i.i.i.i.i.i.i."
};
